# xmcd
#
# Track frame offsets:
#	150
#	13058
#	24913
#	34260
#	44990
#	60340
#	73733
#	84630
#	99245
#	114303
#	126540
#	141540
#	158988
#	171588
#	187223
#	201775
#	216298
#	232758
#	248495
#	260920
#	278078
#	295408
#	304728
#	317028
#
# Disc length: 4408
#
# Revision: 2
# Processed by: cddbd v1.5.1PL0 Copyright (c) Steve Scherf et al.
# Submitted via: tcd 2.0b
# Normalized: r1:TRMNUM
#
DISCID=72113618
DTITLE=Various Artist - Blues Anytime vol 3 and 4
DYEAR=1900
DGENRE=
TTITLE0=Someday baby - Cyril Davies and The All Stars
TTITLE1=Steelin' - The All Stars feat. Jeff Back
TTITLE2=L. A. Breakdown - The All Stars feat. Jimmy Page
TTITLE3=Chuckles - The All Stars feat. Jeff Back
TTITLE4=Down in my boots - The All Stars feat. Jimmy page
TTITLE5=Piano shuffle - The All Stars feat. Nick Hopkins
TTITLE6=Miles Road - Eric Clapton and Jimmy Page
TTITLE7=Porcupine juice - Santa Barbera Machine Head
TTITLE8=Albert - Santa Barbera Machine Head
TTITLE9=Rubber monkey - Santa Barbera Machine Head
TTITLE10=Howlin' for my darling - Stuff Smith
TTITLE11=The next milestone - Albert Lee and Tony Colton
TTITLE12=Sombody's gonna get their heads kicked in tonite - Earl Vince and The Valiants
TTITLE13=New death matter - Dave Kelly
TTITLE14=Backwater blues - Jo-Ann Kelly
TTITLE15=So much to say - Rod Stewart
TTITLE16=Married woman blues - Dave Kelly
TTITLE17=Water on my fire - Albert Lee and Tony Colton
TTITLE18=Keep your hands out of my pockets - Jo-Ann Kelly
TTITLE19=Alabama woman - Dave Kelly
TTITLE20=Crosstown link - Albert Lee
TTITLE21=All night long - Dave Kelly
TTITLE22=Down and dirty - Simon and Steve
TTITLE23=Come home baby - rod Stewart and P. P. Arnold
EXTD=
EXTT0=
EXTT1=
EXTT2=
EXTT3=
EXTT4=
EXTT5=
EXTT6=
EXTT7=
EXTT8=
EXTT9=
EXTT10=
EXTT11=
EXTT12=
EXTT13=
EXTT14=
EXTT15=
EXTT16=
EXTT17=
EXTT18=
EXTT19=
EXTT20=
EXTT21=
EXTT22=
EXTT23=
PLAYORDER=
